<svg viewBox="0 0 24 24" xmlns="http://www.w3.org/2000/svg">

  <!-- Helmet silhouette -->
  <path d="
    M12 3
    C8 3 5 6 5 10
    V14
    C5 16 6 17.5 7.5 18.5
    L8 21
    H10
    V19
    H14
    V21
    H16
    L16.5 18.5
    C18 17.5 19 16 19 14
    V10
    C19 6 16 3 12 3
    Z
  " fill="black"/>

  <!-- Eye lenses -->
  <circle cx="9" cy="11" r="1.6" fill="white"/>
  <circle cx="15" cy="11" r="1.6" fill="white"/>

  <!-- Breather cutouts -->
  <rect x="11" y="13" width="2" height="3" fill="white"/>
  <rect x="9" y="14" width="1.5" height="2" fill="white"/>
  <rect x="13.5" y="14" width="1.5" height="2" fill="white"/>

  <!-- Side vent cutouts -->
  <rect x="6.5" y="12" width="1" height="2" fill="white"/>
  <rect x="16.5" y="12" width="1" height="2" fill="white"/>

</svg>
