<svg viewBox="0 0 24 24" xmlns="http://www.w3.org/2000/svg">

  <!-- Eagle silhouette -->
  <path d="
    M12 4
    C10 4 8.5 5 8 7
    L5 7
    L7 10
    H9
    C9 12 10 14 12 15
    C14 14 15 12 15 10
    H17
    L19 7
    H16
    C15.5 5 14 4 12 4
    Z
  " fill="currentColor"/>

  <!-- Eye cutout -->
  <circle cx="12" cy="7" r="0.8" fill="white"/>

  <!-- Wing cutouts -->
  <path d="
    M9 10
    C9 11 9.5 12 10.5 12.5
    L10.5 11
    Z
  " fill="white"/>

  <path d="
    M15 10
    C15 11 14.5 12 13.5 12.5
    L13.5 11
    Z
  " fill="white"/>

  <!-- Chest cutout -->
  <path d="
    M12 12
    C11.2 12 10.8 12.5 10.8 13
    C10.8 13.5 11.2 14 12 14
    C12.8 14 13.2 13.5 13.2 13
    C13.2 12.5 12.8 12 12 12
    Z
  " fill="white"/>

</svg>
