<svg viewBox="0 0 24 24" xmlns="http://www.w3.org/2000/svg">

  <!-- Body -->
  <path d="
    M5 14
    C5 11 7 9 10 9
    H14
    C17 9 19 11 19 14
    V18
    H5
    Z
  " fill="black"/>

  <!-- Left head -->
  <path d="
    M8 8
    C7 8 6 9 6 10
    V12
    H10
    V10
    C10 9 9 8 8 8
    Z
  " fill="black"/>

  <!-- Right head -->
  <path d="
    M14 8
    C13 8 12 9 12 10
    V12
    H16
    V10
    C16 9 15 8 14 8
    Z
  " fill="black"/>

  <!-- Eye cutouts -->
  <circle cx="7.5" cy="10" r="0.6" fill="white"/>
  <circle cx="13.5" cy="10" r="0.6" fill="white"/>

  <!-- Chest cutout -->
  <rect x="10.5" y="13" width="3" height="1.2" fill="white"/>

</svg>
