<svg viewBox="0 0 24 24" xmlns="http://www.w3.org/2000/svg">

  <!-- Body -->
  <path d="
    M9 6
    C7 6 6 8 6 10
    V17
    H10
    V13
    H14
    V17
    H18
    V10
    C18 8 17 6 15 6
    Z
  " fill="#00ff41"/>

  <!-- Left arm -->
  <path d="
    M6 11
    L4 13
    L6 14.5
    V11
    Z
  " fill="#00ff41"/>

  <!-- Right arm -->
  <path d="
    M18 11
    L20 13
    L18 14.5
    V11
    Z
  " fill="#00ff41"/>

  <!-- Left head -->
  <path d="
    M9 4
    C7.8 4 7 5 7 6.2
    V8.5
    H11
    V6.2
    C11 5 10.2 4 9 4
    Z
  " fill="#00ff41"/>

  <!-- Right head -->
  <path d="
    M15 4
    C13.8 4 13 5 13 6.2
    V8.5
    H17
    V6.2
    C17 5 16.2 4 15 4
    Z
  " fill="#00ff41"/>

  <!-- Eye cutouts -->
  <circle cx="8.5" cy="6.2" r="0.6" fill="#0a1a0a"/>
  <circle cx="14.5" cy="6.2" r="0.6" fill="#0a1a0a"/>

  <!-- Snout cutouts -->
  <rect x="8" y="7.5" width="2" height="0.9" fill="#0a1a0a"/>
  <rect x="14" y="7.5" width="2" height="0.9" fill="#0a1a0a"/>

  <!-- Chest cutout -->
  <rect x="11" y="11.5" width="2" height="1.2" fill="#0a1a0a"/>

</svg>
