<svg viewBox="0 0 24 24" xmlns="http://www.w3.org/2000/svg">

  <!-- Body -->
  <path d="
    M4 15
    C4 12 6 10 9 10
    H15
    C18 10 20 12 20 15
    V18
    H4
    Z
  " fill="black"/>

  <!-- Left head -->
  <path d="
    M8 7
    C6.5 7 6 8.2 6 9.5
    V12
    H10
    V9.5
    C10 8.2 9 7 8 7
    Z
  " fill="black"/>

  <!-- Right head -->
  <path d="
    M16 7
    C14.5 7 14 8.2 14 9.5
    V12
    H18
    V9.5
    C18 8.2 17 7 16 7
    Z
  " fill="black"/>

  <!-- Eye cutouts -->
  <circle cx="7.5" cy="9.5" r="0.6" fill="white"/>
  <circle cx="15.5" cy="9.5" r="0.6" fill="white"/>

  <!-- Snout cutouts -->
  <rect x="7" y="11" width="2" height="0.9" fill="white"/>
  <rect x="15" y="11" width="2" height="0.9" fill="white"/>

  <!-- Chest cutout -->
  <rect x="10.5" y="14" width="3" height="1.2" fill="white"/>

</svg>
